<svg xmlns="http://www.w3.org/2000/svg" xmlns:xlink="http://www.w3.org/1999/xlink" width="500" zoomAndPan="magnify" viewBox="0 0 375 374.999991" height="500" preserveAspectRatio="xMidYMid meet" version="1.0"><defs><g/><clipPath id="9c5652633f"><path d="M 161 45.878906 L 214 45.878906 L 214 121 L 161 121 Z M 161 45.878906 " clip-rule="nonzero"/></clipPath><clipPath id="525e31e72c"><path d="M 75.222656 48 L 214 48 L 214 185 L 75.222656 185 Z M 75.222656 48 " clip-rule="nonzero"/></clipPath><clipPath id="a51c0da687"><path d="M 213.402344 48.785156 C 213.464844 57.976562 212.390625 88.339844 197.46875 117.988281 C 192.765625 127.3125 186.695312 136.574219 178.847656 145.082031 C 158.519531 167.128906 126.273438 184.101562 75.222656 184.101562 L 75.222656 132.304688 C 112.875 132.304688 140.289062 126.535156 160.25 117.988281 C 167.355469 114.9375 173.527344 111.539062 178.867188 107.921875 C 210.273438 86.625 213.277344 57.769531 213.402344 48.785156 Z M 213.402344 48.785156 " clip-rule="nonzero"/></clipPath><clipPath id="fc49de16b1"><path d="M 161 178 L 214 178 L 214 253.628906 L 161 253.628906 Z M 161 178 " clip-rule="nonzero"/></clipPath><clipPath id="004126c07d"><path d="M 161 115 L 299.472656 115 L 299.472656 251 L 161 251 Z M 161 115 " clip-rule="nonzero"/></clipPath><clipPath id="18755be807"><path d="M 161.566406 250.355469 C 161.503906 241.164062 162.578125 210.804688 177.5 181.15625 C 182.203125 171.828125 188.269531 162.566406 196.121094 154.058594 C 216.449219 132.011719 248.695312 115.039062 299.75 115.039062 L 299.75 166.835938 C 262.097656 166.835938 234.683594 172.605469 214.726562 181.15625 C 207.617188 184.207031 201.445312 187.601562 196.109375 191.222656 C 164.703125 212.515625 161.699219 241.375 161.566406 250.355469 Z M 161.566406 250.355469 " clip-rule="nonzero"/></clipPath></defs><g clip-path="url(#9c5652633f)"><path fill="#6c63ff" d="M 161.554688 120.308594 L 161.554688 45.980469 L 213.414062 45.980469 C 213.414062 45.980469 214.109375 80.773438 200.847656 94.785156 C 187.585938 108.800781 161.554688 120.308594 161.554688 120.308594 Z M 161.554688 120.308594 " fill-opacity="1" fill-rule="nonzero"/></g><g clip-path="url(#525e31e72c)"><g clip-path="url(#a51c0da687)"><path fill="#6c63ff" d="M 75.222656 48.785156 L 75.222656 184.101562 L 213.464844 184.101562 L 213.464844 48.785156 Z M 75.222656 48.785156 " fill-opacity="1" fill-rule="nonzero"/></g></g><g clip-path="url(#fc49de16b1)"><path fill="#6c63ff" d="M 213.421875 178.832031 L 213.421875 253.160156 L 161.558594 253.160156 C 161.558594 253.160156 160.863281 218.371094 174.125 204.355469 C 187.386719 190.347656 213.421875 178.832031 213.421875 178.832031 Z M 213.421875 178.832031 " fill-opacity="1" fill-rule="nonzero"/></g><g clip-path="url(#004126c07d)"><g clip-path="url(#18755be807)"><path fill="#6c63ff" d="M 299.472656 250.355469 L 299.472656 115.039062 L 161.503906 115.039062 L 161.503906 250.355469 Z M 299.472656 250.355469 " fill-opacity="1" fill-rule="nonzero"/></g></g><g fill="#6c63ff" fill-opacity="1"><g transform="translate(40.237975, 316.211555)"><g><path d="M 33.921875 -37.734375 C 33.921875 -36.703125 33.863281 -35.78125 33.75 -34.96875 C 33.644531 -34.15625 33.59375 -33.234375 33.59375 -32.203125 C 33.59375 -31.503906 33.597656 -30.859375 33.609375 -30.265625 C 33.628906 -29.679688 33.640625 -29.019531 33.640625 -28.28125 C 33.640625 -26.519531 33.617188 -24.925781 33.578125 -23.5 C 33.546875 -22.082031 33.53125 -20.492188 33.53125 -18.734375 L 33.53125 -18.28125 C 33.53125 -17.476562 33.546875 -16.660156 33.578125 -15.828125 C 33.617188 -15.003906 33.640625 -14.1875 33.640625 -13.375 C 33.640625 -12.082031 33.613281 -10.921875 33.5625 -9.890625 C 33.507812 -8.859375 33.484375 -7.695312 33.484375 -6.40625 C 33.484375 -5.664062 33.519531 -5 33.59375 -4.40625 C 33.664062 -3.820312 33.703125 -3.164062 33.703125 -2.4375 C 33.703125 -1.582031 33.628906 -0.972656 33.484375 -0.609375 C 33.335938 -0.242188 32.929688 -0.0625 32.265625 -0.0625 C 31.523438 -0.0625 30.859375 -0.0859375 30.265625 -0.140625 C 29.679688 -0.191406 29.019531 -0.21875 28.28125 -0.21875 C 27.769531 -0.21875 27.300781 -0.191406 26.875 -0.140625 C 26.457031 -0.0859375 25.988281 -0.0625 25.46875 -0.0625 C 24.582031 -0.0625 24.019531 -0.289062 23.78125 -0.75 C 23.539062 -1.207031 23.421875 -1.617188 23.421875 -1.984375 C 23.421875 -2.609375 23.457031 -3.171875 23.53125 -3.671875 C 23.601562 -4.171875 23.640625 -4.710938 23.640625 -5.296875 L 23.640625 -6.796875 C 23.640625 -7.015625 23.648438 -7.21875 23.671875 -7.40625 C 23.691406 -7.59375 23.703125 -7.796875 23.703125 -8.015625 C 23.703125 -8.378906 23.679688 -8.695312 23.640625 -8.96875 C 23.609375 -9.25 23.609375 -9.570312 23.640625 -9.9375 C 23.679688 -10.238281 23.71875 -10.515625 23.75 -10.765625 C 23.789062 -11.023438 23.8125 -11.320312 23.8125 -11.65625 C 23.8125 -12.28125 23.78125 -12.84375 23.71875 -13.34375 C 23.664062 -13.84375 23.640625 -14.382812 23.640625 -14.96875 C 23.640625 -15.300781 23.648438 -15.597656 23.671875 -15.859375 C 23.691406 -16.117188 23.703125 -16.394531 23.703125 -16.6875 C 23.703125 -16.875 23.691406 -17.019531 23.671875 -17.125 C 23.648438 -17.238281 23.640625 -17.367188 23.640625 -17.515625 L 23.640625 -17.734375 C 23.640625 -17.921875 23.550781 -18.015625 23.375 -18.015625 C 23.1875 -18.015625 22.988281 -17.789062 22.78125 -17.34375 C 22.582031 -16.90625 22.414062 -16.453125 22.28125 -15.984375 C 22.15625 -15.523438 22.078125 -15.257812 22.046875 -15.1875 C 22.046875 -15.1875 21.925781 -14.921875 21.6875 -14.390625 C 21.445312 -13.859375 21.171875 -13.257812 20.859375 -12.59375 C 20.546875 -11.9375 20.269531 -11.335938 20.03125 -10.796875 C 19.789062 -10.265625 19.671875 -10 19.671875 -10 C 19.554688 -9.851562 19.425781 -9.707031 19.28125 -9.5625 C 19.132812 -9.414062 18.894531 -9.34375 18.5625 -9.34375 C 18.445312 -9.34375 18.257812 -9.347656 18 -9.359375 C 17.75 -9.378906 17.566406 -9.425781 17.453125 -9.5 C 17.128906 -9.71875 16.753906 -10.222656 16.328125 -11.015625 C 15.898438 -11.804688 15.429688 -12.644531 14.921875 -13.53125 C 14.773438 -13.757812 14.644531 -13.960938 14.53125 -14.140625 C 14.414062 -14.328125 14.304688 -14.53125 14.203125 -14.75 C 14.054688 -15.039062 13.9375 -15.304688 13.84375 -15.546875 C 13.75 -15.785156 13.628906 -16.035156 13.484375 -16.296875 C 13.335938 -16.660156 13.132812 -17.070312 12.875 -17.53125 C 12.613281 -18 12.429688 -18.210938 12.328125 -18.171875 C 12.140625 -18.097656 12.046875 -17.878906 12.046875 -17.515625 L 12.046875 -17.1875 C 12.046875 -16.332031 12.015625 -15.566406 11.953125 -14.890625 C 11.898438 -14.210938 11.875 -13.445312 11.875 -12.59375 C 11.875 -12.113281 11.882812 -11.671875 11.90625 -11.265625 C 11.925781 -10.859375 11.9375 -10.398438 11.9375 -9.890625 C 11.894531 -9.265625 11.863281 -8.691406 11.84375 -8.171875 C 11.832031 -7.660156 11.828125 -7.070312 11.828125 -6.40625 L 11.828125 -5.25 C 11.828125 -4.65625 11.84375 -4.128906 11.875 -3.671875 C 11.914062 -3.210938 11.9375 -2.6875 11.9375 -2.09375 C 11.9375 -1.175781 11.742188 -0.609375 11.359375 -0.390625 C 10.972656 -0.171875 10.539062 -0.0625 10.0625 -0.0625 C 9.613281 -0.0625 9.210938 -0.0664062 8.859375 -0.078125 C 8.515625 -0.0976562 8.125 -0.109375 7.6875 -0.109375 C 7.207031 -0.109375 6.78125 -0.109375 6.40625 -0.109375 C 6.039062 -0.109375 5.617188 -0.09375 5.140625 -0.0625 C 4.921875 -0.0625 4.71875 -0.0390625 4.53125 0 C 4.34375 0.0390625 4.140625 0.0625 3.921875 0.0625 C 2.929688 0.0625 2.359375 -0.191406 2.203125 -0.703125 C 2.054688 -1.222656 1.984375 -1.671875 1.984375 -2.046875 C 1.984375 -2.484375 1.992188 -2.875 2.015625 -3.21875 C 2.035156 -3.570312 2.0625 -3.972656 2.09375 -4.421875 C 2.132812 -5.046875 2.160156 -5.597656 2.171875 -6.078125 C 2.191406 -6.554688 2.203125 -7.09375 2.203125 -7.6875 C 2.203125 -9.007812 2.164062 -10.210938 2.09375 -11.296875 C 2.019531 -12.378906 1.984375 -13.585938 1.984375 -14.921875 C 1.984375 -16.285156 2.007812 -17.5 2.0625 -18.5625 C 2.125 -19.632812 2.15625 -20.832031 2.15625 -22.15625 C 2.15625 -23.445312 2.132812 -24.609375 2.09375 -25.640625 C 2.0625 -26.671875 2.046875 -27.828125 2.046875 -29.109375 C 2.046875 -29.742188 2.0625 -30.300781 2.09375 -30.78125 C 2.132812 -31.257812 2.15625 -31.789062 2.15625 -32.375 C 2.1875 -33.332031 2.144531 -34.195312 2.03125 -34.96875 C 1.925781 -35.75 1.875 -36.632812 1.875 -37.625 C 1.875 -38.21875 2.019531 -38.613281 2.3125 -38.8125 C 2.613281 -39.007812 2.921875 -39.117188 3.234375 -39.140625 C 3.546875 -39.160156 3.757812 -39.171875 3.875 -39.171875 C 4.71875 -39.171875 5.460938 -39.160156 6.109375 -39.140625 C 6.753906 -39.117188 7.476562 -39.109375 8.28125 -39.109375 C 8.65625 -39.109375 8.96875 -39.117188 9.21875 -39.140625 C 9.476562 -39.160156 9.796875 -39.171875 10.171875 -39.171875 C 10.828125 -39.171875 11.289062 -39.039062 11.5625 -38.78125 C 11.84375 -38.53125 12.078125 -38.132812 12.265625 -37.59375 C 12.453125 -37.0625 12.707031 -36.410156 13.03125 -35.640625 C 13.4375 -34.710938 13.851562 -33.898438 14.28125 -33.203125 C 14.707031 -32.503906 15.160156 -31.734375 15.640625 -30.890625 C 15.859375 -30.515625 16.03125 -30.171875 16.15625 -29.859375 C 16.289062 -29.546875 16.445312 -29.1875 16.625 -28.78125 C 16.664062 -28.707031 16.769531 -28.492188 16.9375 -28.140625 C 17.101562 -27.796875 17.296875 -27.46875 17.515625 -27.15625 C 17.734375 -26.84375 17.914062 -26.6875 18.0625 -26.6875 C 18.25 -26.6875 18.453125 -26.867188 18.671875 -27.234375 C 18.890625 -27.609375 19.082031 -27.992188 19.25 -28.390625 C 19.414062 -28.796875 19.519531 -29.035156 19.5625 -29.109375 C 19.851562 -29.671875 20.117188 -30.160156 20.359375 -30.578125 C 20.597656 -31.003906 20.847656 -31.507812 21.109375 -32.09375 C 21.367188 -32.6875 21.578125 -33.222656 21.734375 -33.703125 C 21.898438 -34.179688 22.113281 -34.71875 22.375 -35.3125 C 22.375 -35.34375 22.503906 -35.613281 22.765625 -36.125 C 23.023438 -36.644531 23.289062 -37.160156 23.5625 -37.671875 C 23.84375 -38.191406 23.984375 -38.453125 23.984375 -38.453125 C 24.160156 -38.640625 24.257812 -38.75 24.28125 -38.78125 C 24.300781 -38.820312 24.441406 -38.914062 24.703125 -39.0625 C 24.734375 -39.09375 24.96875 -39.128906 25.40625 -39.171875 C 25.851562 -39.210938 26.242188 -39.234375 26.578125 -39.234375 C 27.128906 -39.234375 27.625 -39.210938 28.0625 -39.171875 C 28.507812 -39.128906 29.007812 -39.109375 29.5625 -39.109375 C 30.144531 -39.109375 30.65625 -39.128906 31.09375 -39.171875 C 31.539062 -39.210938 32.0625 -39.234375 32.65625 -39.234375 C 33.132812 -39.234375 33.460938 -39.082031 33.640625 -38.78125 C 33.828125 -38.488281 33.921875 -38.140625 33.921875 -37.734375 Z M 33.921875 -37.734375 "/></g></g></g><g fill="#6c63ff" fill-opacity="1"><g transform="translate(79.62137, 316.211555)"><g><path d="M 22.875 -7.078125 C 22.875 -6.628906 22.851562 -6.226562 22.8125 -5.875 C 22.78125 -5.53125 22.765625 -5.117188 22.765625 -4.640625 C 22.765625 -4.160156 22.769531 -3.734375 22.78125 -3.359375 C 22.800781 -2.992188 22.8125 -2.570312 22.8125 -2.09375 C 22.8125 -1.769531 22.691406 -1.328125 22.453125 -0.765625 C 22.210938 -0.210938 21.613281 0.0625 20.65625 0.0625 C 20.289062 0.0625 19.953125 0.0507812 19.640625 0.03125 C 19.328125 0.0078125 18.96875 0 18.5625 0 L 17.234375 0 C 16.578125 0 15.976562 -0.015625 15.4375 -0.046875 C 14.90625 -0.0859375 14.304688 -0.109375 13.640625 -0.109375 C 13.273438 -0.109375 12.9375 -0.0976562 12.625 -0.078125 C 12.3125 -0.0664062 11.953125 -0.0625 11.546875 -0.0625 L 5.640625 -0.0625 C 5.378906 -0.0195312 5.132812 0.0078125 4.90625 0.03125 C 4.6875 0.0507812 4.429688 0.0625 4.140625 0.0625 C 3.804688 0.0625 3.34375 -0.0820312 2.75 -0.375 C 2.164062 -0.675781 1.875 -1.304688 1.875 -2.265625 C 1.875 -3.003906 1.898438 -3.664062 1.953125 -4.25 C 2.015625 -4.84375 2.046875 -5.488281 2.046875 -6.1875 C 2.046875 -6.851562 2.035156 -7.441406 2.015625 -7.953125 C 1.992188 -8.472656 1.984375 -9.0625 1.984375 -9.71875 C 1.984375 -10.195312 2.007812 -10.628906 2.0625 -11.015625 C 2.125 -11.410156 2.15625 -11.847656 2.15625 -12.328125 C 2.15625 -12.796875 2.132812 -13.210938 2.09375 -13.578125 C 2.0625 -13.953125 2.046875 -14.378906 2.046875 -14.859375 C 2.046875 -15.785156 2.0625 -16.601562 2.09375 -17.3125 C 2.132812 -18.03125 2.15625 -18.851562 2.15625 -19.78125 C 2.15625 -20.625 2.132812 -21.453125 2.09375 -22.265625 C 2.0625 -23.078125 2.046875 -23.890625 2.046875 -24.703125 C 2.003906 -25.835938 2.007812 -26.851562 2.0625 -27.75 C 2.125 -28.65625 2.15625 -29.679688 2.15625 -30.828125 C 2.15625 -31.640625 2.132812 -32.359375 2.09375 -32.984375 C 2.0625 -33.609375 2.046875 -34.304688 2.046875 -35.078125 C 2.046875 -36.703125 2.207031 -37.800781 2.53125 -38.375 C 2.863281 -38.945312 3.660156 -39.234375 4.921875 -39.234375 C 5.648438 -39.234375 6.3125 -39.191406 6.90625 -39.109375 C 7.5 -39.035156 8.144531 -39 8.84375 -39 C 9.175781 -39 9.515625 -39.007812 9.859375 -39.03125 C 10.210938 -39.050781 10.554688 -39.0625 10.890625 -39.0625 C 11.765625 -39.0625 12.5625 -39.03125 13.28125 -38.96875 C 14 -38.914062 14.800781 -38.890625 15.6875 -38.890625 C 16.09375 -38.890625 16.453125 -38.90625 16.765625 -38.9375 C 17.078125 -38.976562 17.421875 -39 17.796875 -39 L 18.890625 -39 C 19.191406 -39 19.46875 -39.007812 19.71875 -39.03125 C 19.976562 -39.050781 20.273438 -39.0625 20.609375 -39.0625 C 21.453125 -39.0625 21.957031 -38.820312 22.125 -38.34375 C 22.289062 -37.863281 22.375 -37.476562 22.375 -37.1875 C 22.375 -36.707031 22.34375 -36.234375 22.28125 -35.765625 C 22.226562 -35.304688 22.203125 -34.835938 22.203125 -34.359375 C 22.203125 -33.878906 22.210938 -33.304688 22.234375 -32.640625 C 22.253906 -31.984375 22.125 -31.414062 21.84375 -30.9375 C 21.570312 -30.457031 20.976562 -30.21875 20.0625 -30.21875 L 19.453125 -30.21875 C 19.117188 -30.21875 18.8125 -30.207031 18.53125 -30.1875 C 18.257812 -30.175781 17.957031 -30.171875 17.625 -30.171875 C 17.1875 -30.171875 16.789062 -30.195312 16.4375 -30.25 C 16.082031 -30.300781 15.664062 -30.328125 15.1875 -30.328125 C 13.675781 -30.328125 12.773438 -30.097656 12.484375 -29.640625 C 12.191406 -29.179688 12.046875 -28.472656 12.046875 -27.515625 C 12.046875 -25.597656 12.691406 -24.640625 13.984375 -24.640625 C 14.273438 -24.640625 14.546875 -24.65625 14.796875 -24.6875 C 15.054688 -24.726562 15.335938 -24.75 15.640625 -24.75 L 15.75 -24.75 C 16.15625 -24.75 16.519531 -24.726562 16.84375 -24.6875 C 17.175781 -24.65625 17.53125 -24.640625 17.90625 -24.640625 C 18.226562 -24.640625 18.53125 -24.648438 18.8125 -24.671875 C 19.09375 -24.691406 19.378906 -24.703125 19.671875 -24.703125 C 20.441406 -24.703125 20.972656 -24.5625 21.265625 -24.28125 C 21.566406 -24.007812 21.734375 -23.6875 21.765625 -23.3125 C 21.804688 -22.945312 21.828125 -22.632812 21.828125 -22.375 C 21.828125 -21.9375 21.816406 -21.550781 21.796875 -21.21875 C 21.773438 -20.882812 21.765625 -20.5 21.765625 -20.0625 C 21.765625 -19.65625 21.773438 -19.285156 21.796875 -18.953125 C 21.816406 -18.617188 21.828125 -18.25 21.828125 -17.84375 C 21.828125 -17.144531 21.675781 -16.628906 21.375 -16.296875 C 21.082031 -15.960938 20.757812 -15.757812 20.40625 -15.6875 C 20.0625 -15.613281 19.757812 -15.578125 19.5 -15.578125 C 18.65625 -15.578125 17.890625 -15.613281 17.203125 -15.6875 C 16.523438 -15.757812 15.765625 -15.796875 14.921875 -15.796875 C 13.921875 -15.796875 13.226562 -15.628906 12.84375 -15.296875 C 12.457031 -14.972656 12.234375 -14.578125 12.171875 -14.109375 C 12.117188 -13.648438 12.09375 -13.21875 12.09375 -12.8125 L 12.09375 -12.15625 C 12.09375 -12.007812 12.101562 -11.742188 12.125 -11.359375 C 12.144531 -10.972656 12.171875 -10.6875 12.203125 -10.5 C 12.609375 -9.726562 13.050781 -9.332031 13.53125 -9.3125 C 14.007812 -9.289062 14.765625 -9.242188 15.796875 -9.171875 C 16.316406 -9.128906 16.769531 -9.082031 17.15625 -9.03125 C 17.539062 -8.976562 17.972656 -8.953125 18.453125 -8.953125 C 18.890625 -8.953125 19.285156 -8.976562 19.640625 -9.03125 C 19.992188 -9.082031 20.375 -9.109375 20.78125 -9.109375 C 21.070312 -9.109375 21.484375 -8.988281 22.015625 -8.75 C 22.546875 -8.507812 22.832031 -7.953125 22.875 -7.078125 Z M 22.875 -7.078125 "/></g></g></g><g fill="#6c63ff" fill-opacity="1"><g transform="translate(107.460635, 316.211555)"><g><path d="M 27.953125 -19 C 27.953125 -17.789062 27.8125 -16.335938 27.53125 -14.640625 C 27.257812 -12.941406 26.789062 -11.21875 26.125 -9.46875 C 25.46875 -7.71875 24.550781 -6.097656 23.375 -4.609375 C 22.195312 -3.117188 20.6875 -1.96875 18.84375 -1.15625 C 18.144531 -0.863281 17.320312 -0.625 16.375 -0.4375 C 15.4375 -0.257812 14.210938 -0.171875 12.703125 -0.171875 C 12.191406 -0.171875 11.722656 -0.1875 11.296875 -0.21875 C 10.867188 -0.257812 10.378906 -0.28125 9.828125 -0.28125 C 9.023438 -0.28125 8.304688 -0.234375 7.671875 -0.140625 C 7.046875 -0.046875 6.332031 0 5.53125 0 C 4.675781 0 3.890625 -0.109375 3.171875 -0.328125 C 2.453125 -0.546875 2.09375 -1.285156 2.09375 -2.546875 C 2.09375 -3.535156 2.140625 -4.4375 2.234375 -5.25 C 2.328125 -6.0625 2.375 -6.960938 2.375 -7.953125 C 2.375 -9.578125 2.328125 -11.03125 2.234375 -12.3125 C 2.140625 -13.601562 2.09375 -15.039062 2.09375 -16.625 C 2.09375 -17.25 2.101562 -17.8125 2.125 -18.3125 C 2.144531 -18.8125 2.171875 -19.375 2.203125 -20 C 2.242188 -21.101562 2.226562 -22.101562 2.15625 -23 C 2.082031 -23.90625 2.046875 -24.910156 2.046875 -26.015625 C 2.046875 -27.015625 2.0625 -27.898438 2.09375 -28.671875 C 2.132812 -29.441406 2.15625 -30.328125 2.15625 -31.328125 C 2.15625 -32.140625 2.125 -32.875 2.0625 -33.53125 C 2.007812 -34.195312 1.984375 -34.9375 1.984375 -35.75 C 1.984375 -37 2.195312 -37.851562 2.625 -38.3125 C 3.050781 -38.769531 3.664062 -39 4.46875 -39 C 5.207031 -39 5.867188 -38.988281 6.453125 -38.96875 C 7.046875 -38.957031 7.691406 -38.953125 8.390625 -38.953125 C 9.128906 -38.953125 9.789062 -38.957031 10.375 -38.96875 C 10.96875 -38.988281 11.617188 -39.019531 12.328125 -39.0625 C 12.546875 -39.0625 12.765625 -39.066406 12.984375 -39.078125 C 13.203125 -39.097656 13.40625 -39.109375 13.59375 -39.109375 C 16.207031 -39.109375 18.238281 -38.722656 19.6875 -37.953125 C 21.144531 -37.179688 22.445312 -36.148438 23.59375 -34.859375 C 23.78125 -34.640625 24.09375 -34.242188 24.53125 -33.671875 C 24.96875 -33.097656 25.375 -32.425781 25.75 -31.65625 C 26.300781 -30.519531 26.734375 -29.238281 27.046875 -27.8125 C 27.359375 -26.394531 27.578125 -25.039062 27.703125 -23.75 C 27.835938 -22.46875 27.910156 -21.382812 27.921875 -20.5 C 27.941406 -19.613281 27.953125 -19.113281 27.953125 -19 Z M 17.40625 -19.0625 C 17.40625 -19.726562 17.382812 -20.335938 17.34375 -20.890625 C 17.3125 -21.441406 17.257812 -22.046875 17.1875 -22.703125 C 17.144531 -23.035156 17.078125 -23.585938 16.984375 -24.359375 C 16.890625 -25.140625 16.722656 -25.941406 16.484375 -26.765625 C 16.253906 -27.597656 15.898438 -28.296875 15.421875 -28.859375 C 14.941406 -29.429688 14.296875 -29.679688 13.484375 -29.609375 C 13.179688 -29.609375 12.957031 -29.535156 12.8125 -29.390625 C 12.300781 -29.128906 12.007812 -28.734375 11.9375 -28.203125 C 11.863281 -27.671875 11.828125 -27.21875 11.828125 -26.84375 C 11.828125 -25.8125 11.851562 -24.875 11.90625 -24.03125 C 11.957031 -23.1875 11.984375 -22.226562 11.984375 -21.15625 C 11.984375 -20.457031 11.960938 -19.832031 11.921875 -19.28125 C 11.890625 -18.726562 11.875 -18.082031 11.875 -17.34375 C 11.875 -16.789062 11.898438 -16.285156 11.953125 -15.828125 C 12.015625 -15.367188 12.046875 -14.863281 12.046875 -14.3125 C 12.046875 -13.9375 12.035156 -13.59375 12.015625 -13.28125 C 11.992188 -12.96875 11.984375 -12.609375 11.984375 -12.203125 C 11.984375 -11.835938 12.007812 -11.394531 12.0625 -10.875 C 12.125 -10.363281 12.289062 -9.921875 12.5625 -9.546875 C 12.84375 -9.179688 13.316406 -9 13.984375 -9 C 14.679688 -9.039062 15.210938 -9.28125 15.578125 -9.71875 C 15.953125 -10.164062 16.203125 -10.609375 16.328125 -11.046875 C 16.453125 -11.492188 16.515625 -11.734375 16.515625 -11.765625 C 16.585938 -11.984375 16.671875 -12.441406 16.765625 -13.140625 C 16.859375 -13.847656 16.953125 -14.601562 17.046875 -15.40625 C 17.140625 -16.21875 17.222656 -16.972656 17.296875 -17.671875 C 17.367188 -18.378906 17.40625 -18.84375 17.40625 -19.0625 Z M 17.40625 -19.0625 "/></g></g></g><g fill="#6c63ff" fill-opacity="1"><g transform="translate(139.93965, 316.211555)"><g><path d="M 12.203125 -1.828125 C 12.203125 -1.492188 12.117188 -1.125 11.953125 -0.71875 C 11.796875 -0.3125 11.3125 -0.109375 10.5 -0.109375 C 10.09375 -0.109375 9.710938 -0.125 9.359375 -0.15625 C 9.015625 -0.195312 8.640625 -0.21875 8.234375 -0.21875 C 7.535156 -0.21875 6.914062 -0.191406 6.375 -0.140625 C 5.84375 -0.0859375 5.242188 -0.0625 4.578125 -0.0625 C 3.660156 -0.0625 3.023438 -0.179688 2.671875 -0.421875 C 2.328125 -0.660156 2.125 -0.972656 2.0625 -1.359375 C 2.007812 -1.742188 1.984375 -2.15625 1.984375 -2.59375 L 1.984375 -4.859375 C 1.984375 -5.484375 2.007812 -6.0625 2.0625 -6.59375 C 2.125 -7.132812 2.15625 -7.71875 2.15625 -8.34375 L 2.15625 -10.609375 C 2.15625 -12.003906 2.125 -13.265625 2.0625 -14.390625 C 2.007812 -15.515625 1.984375 -16.757812 1.984375 -18.125 L 1.984375 -24.96875 C 1.984375 -26.070312 2.007812 -27.054688 2.0625 -27.921875 C 2.125 -28.796875 2.15625 -29.765625 2.15625 -30.828125 L 2.15625 -34.640625 C 2.15625 -35.117188 2.125 -35.539062 2.0625 -35.90625 C 2.007812 -36.28125 1.984375 -36.707031 1.984375 -37.1875 C 1.984375 -38.101562 2.238281 -38.644531 2.75 -38.8125 C 3.269531 -38.976562 3.84375 -39.0625 4.46875 -39.0625 C 5.101562 -39.0625 5.6875 -39.050781 6.21875 -39.03125 C 6.75 -39.007812 7.328125 -39 7.953125 -39 C 8.472656 -39 8.953125 -39.015625 9.390625 -39.046875 C 9.835938 -39.085938 10.335938 -39.109375 10.890625 -39.109375 C 11.472656 -39.109375 11.835938 -38.847656 11.984375 -38.328125 C 12.128906 -37.816406 12.203125 -37.398438 12.203125 -37.078125 C 12.203125 -36.628906 12.179688 -36.226562 12.140625 -35.875 C 12.109375 -35.53125 12.078125 -35.140625 12.046875 -34.703125 C 12.003906 -33.992188 11.992188 -33.375 12.015625 -32.84375 C 12.035156 -32.3125 12.046875 -31.695312 12.046875 -31 L 12.046875 -22.4375 C 12.046875 -21.8125 12.023438 -21.238281 11.984375 -20.71875 C 11.953125 -20.195312 11.9375 -19.625 11.9375 -19 L 11.9375 -16.296875 C 11.9375 -15.191406 11.972656 -14.207031 12.046875 -13.34375 C 12.117188 -12.476562 12.15625 -11.492188 12.15625 -10.390625 C 12.15625 -9.578125 12.125 -8.835938 12.0625 -8.171875 C 12.007812 -7.515625 11.984375 -6.78125 11.984375 -5.96875 C 11.984375 -5.195312 12.019531 -4.503906 12.09375 -3.890625 C 12.164062 -3.285156 12.203125 -2.597656 12.203125 -1.828125 Z M 12.203125 -1.828125 "/></g></g></g><g fill="#6c63ff" fill-opacity="1"><g transform="translate(157.449967, 316.211555)"><g><path d="M 41.375 -37.453125 C 41.375 -37.085938 41.273438 -36.5 41.078125 -35.6875 C 40.878906 -34.875 40.664062 -33.972656 40.4375 -32.984375 C 40.1875 -31.878906 39.992188 -30.882812 39.859375 -30 C 39.734375 -29.113281 39.5625 -28.101562 39.34375 -26.96875 C 39.082031 -25.5625 38.8125 -24.304688 38.53125 -23.203125 C 38.257812 -22.097656 37.921875 -20.847656 37.515625 -19.453125 C 37.253906 -18.597656 37.03125 -17.820312 36.84375 -17.125 C 36.664062 -16.425781 36.484375 -15.65625 36.296875 -14.8125 C 36.148438 -14.144531 36.039062 -13.539062 35.96875 -13 C 35.894531 -12.46875 35.785156 -11.875 35.640625 -11.21875 C 35.453125 -10.40625 35.253906 -9.6875 35.046875 -9.0625 C 34.847656 -8.4375 34.65625 -7.71875 34.46875 -6.90625 C 34.320312 -6.207031 34.175781 -5.5625 34.03125 -4.96875 C 33.882812 -4.382812 33.703125 -3.722656 33.484375 -2.984375 C 33.296875 -2.390625 33.097656 -1.84375 32.890625 -1.34375 C 32.691406 -0.851562 32.484375 -0.515625 32.265625 -0.328125 C 32.003906 -0.109375 31.742188 0.015625 31.484375 0.046875 C 31.234375 0.0859375 30.957031 0.109375 30.65625 0.109375 C 29.925781 0.109375 29.273438 0.0859375 28.703125 0.046875 C 28.128906 0.015625 27.472656 0 26.734375 0 C 26.335938 0 25.960938 0.015625 25.609375 0.046875 C 25.253906 0.0859375 24.875 0.109375 24.46875 0.109375 C 24.101562 0.109375 23.828125 0.0351562 23.640625 -0.109375 C 23.460938 -0.253906 23.300781 -0.421875 23.15625 -0.609375 C 23.113281 -0.640625 23.070312 -0.71875 23.03125 -0.84375 C 23 -0.976562 22.984375 -1.046875 22.984375 -1.046875 C 22.984375 -1.046875 22.914062 -1.300781 22.78125 -1.8125 C 22.65625 -2.332031 22.523438 -2.921875 22.390625 -3.578125 C 22.265625 -4.242188 22.144531 -4.832031 22.03125 -5.34375 C 21.925781 -5.863281 21.875 -6.125 21.875 -6.125 C 21.769531 -6.601562 21.6875 -7.023438 21.625 -7.390625 C 21.570312 -7.765625 21.488281 -8.175781 21.375 -8.625 C 21.34375 -8.695312 21.253906 -9.007812 21.109375 -9.5625 C 20.960938 -10.113281 20.757812 -10.40625 20.5 -10.4375 C 20.125 -10.507812 19.835938 -10.175781 19.640625 -9.4375 C 19.441406 -8.707031 19.25 -8.03125 19.0625 -7.40625 C 18.800781 -6.59375 18.578125 -5.851562 18.390625 -5.1875 C 18.210938 -4.53125 17.992188 -3.773438 17.734375 -2.921875 C 17.617188 -2.554688 17.5 -2.132812 17.375 -1.65625 C 17.25 -1.175781 17.164062 -0.921875 17.125 -0.890625 C 17.019531 -0.734375 16.96875 -0.632812 16.96875 -0.59375 C 16.96875 -0.5625 16.875 -0.457031 16.6875 -0.28125 C 16.46875 -0.0507812 16.097656 0.0625 15.578125 0.0625 C 14.992188 0.0625 14.476562 0.0507812 14.03125 0.03125 C 13.59375 0.0078125 13.097656 0 12.546875 0 C 12.171875 0 11.78125 0.0078125 11.375 0.03125 C 10.976562 0.0507812 10.578125 0.0625 10.171875 0.0625 C 9.691406 0.0625 9.3125 0.015625 9.03125 -0.078125 C 8.757812 -0.171875 8.492188 -0.347656 8.234375 -0.609375 C 7.898438 -0.941406 7.625 -1.757812 7.40625 -3.0625 C 7.1875 -4.375 6.945312 -5.675781 6.6875 -6.96875 C 6.394531 -8.695312 6.035156 -10.238281 5.609375 -11.59375 C 5.179688 -12.957031 4.765625 -14.488281 4.359375 -16.1875 C 4.109375 -17.21875 3.925781 -18.140625 3.8125 -18.953125 C 3.695312 -19.765625 3.515625 -20.664062 3.265625 -21.65625 C 3.035156 -22.5 2.8125 -23.257812 2.59375 -23.9375 C 2.375 -24.625 2.171875 -25.375 1.984375 -26.1875 C 1.953125 -26.332031 1.867188 -26.773438 1.734375 -27.515625 C 1.609375 -28.253906 1.453125 -29.140625 1.265625 -30.171875 C 1.085938 -31.203125 0.90625 -32.222656 0.71875 -33.234375 C 0.53125 -34.242188 0.378906 -35.117188 0.265625 -35.859375 C 0.160156 -36.597656 0.109375 -37.039062 0.109375 -37.1875 C 0.109375 -37.957031 0.242188 -38.46875 0.515625 -38.71875 C 0.796875 -38.976562 1.109375 -39.117188 1.453125 -39.140625 C 1.804688 -39.160156 2.113281 -39.171875 2.375 -39.171875 C 3.039062 -39.171875 3.648438 -39.140625 4.203125 -39.078125 C 4.753906 -39.023438 5.359375 -39 6.015625 -39 C 6.421875 -39 6.769531 -39.015625 7.0625 -39.046875 C 7.363281 -39.085938 7.695312 -39.109375 8.0625 -39.109375 C 8.800781 -39.109375 9.328125 -38.867188 9.640625 -38.390625 C 9.953125 -37.921875 10.160156 -37.378906 10.265625 -36.765625 C 10.378906 -36.160156 10.457031 -35.65625 10.5 -35.25 C 10.570312 -34.769531 10.644531 -34.335938 10.71875 -33.953125 C 10.789062 -33.566406 10.863281 -33.113281 10.9375 -32.59375 C 11.269531 -30.863281 11.640625 -29.316406 12.046875 -27.953125 C 12.453125 -26.585938 12.859375 -25.039062 13.265625 -23.3125 C 13.410156 -22.757812 13.554688 -22.125 13.703125 -21.40625 C 13.847656 -20.6875 13.972656 -20.050781 14.078125 -19.5 C 14.191406 -18.945312 14.25 -18.65625 14.25 -18.625 C 14.363281 -18.46875 14.457031 -18.390625 14.53125 -18.390625 C 14.820312 -18.390625 14.96875 -18.5 14.96875 -18.71875 C 14.96875 -18.945312 15.003906 -19.191406 15.078125 -19.453125 C 15.148438 -19.628906 15.242188 -19.945312 15.359375 -20.40625 C 15.472656 -20.875 15.546875 -21.179688 15.578125 -21.328125 C 15.765625 -22.171875 15.945312 -22.929688 16.125 -23.609375 C 16.3125 -24.296875 16.515625 -25.046875 16.734375 -25.859375 C 16.554688 -26.554688 16.375 -27.253906 16.1875 -27.953125 C 16 -28.648438 15.832031 -29.351562 15.6875 -30.0625 C 15.539062 -30.789062 15.421875 -31.445312 15.328125 -32.03125 C 15.234375 -32.625 15.097656 -33.289062 14.921875 -34.03125 C 14.804688 -34.550781 14.675781 -35.101562 14.53125 -35.6875 C 14.382812 -36.28125 14.3125 -36.832031 14.3125 -37.34375 C 14.3125 -38.050781 14.484375 -38.519531 14.828125 -38.75 C 15.179688 -38.988281 15.550781 -39.109375 15.9375 -39.109375 C 16.320312 -39.109375 16.550781 -39.109375 16.625 -39.109375 C 17.25 -39.109375 17.8125 -39.082031 18.3125 -39.03125 C 18.8125 -38.976562 19.351562 -38.953125 19.9375 -38.953125 C 20.457031 -38.953125 20.890625 -38.96875 21.234375 -39 C 21.585938 -39.039062 22.003906 -39.0625 22.484375 -39.0625 C 23.585938 -39.0625 24.203125 -38.765625 24.328125 -38.171875 C 24.460938 -37.585938 24.585938 -36.648438 24.703125 -35.359375 C 24.734375 -34.878906 24.773438 -34.425781 24.828125 -34 C 24.890625 -33.582031 24.957031 -33.113281 25.03125 -32.59375 C 25.320312 -30.570312 25.640625 -28.769531 25.984375 -27.1875 C 26.335938 -25.601562 26.585938 -23.78125 26.734375 -21.71875 C 26.773438 -21.238281 26.820312 -20.710938 26.875 -20.140625 C 26.9375 -19.566406 27.007812 -19.066406 27.09375 -18.640625 C 27.1875 -18.222656 27.328125 -18.015625 27.515625 -18.015625 C 27.703125 -18.015625 27.847656 -18.234375 27.953125 -18.671875 C 28.066406 -19.117188 28.148438 -19.632812 28.203125 -20.21875 C 28.253906 -20.8125 28.320312 -21.328125 28.40625 -21.765625 C 28.550781 -22.617188 28.703125 -23.375 28.859375 -24.03125 C 29.023438 -24.695312 29.1875 -25.4375 29.34375 -26.25 C 29.445312 -27.050781 29.523438 -27.785156 29.578125 -28.453125 C 29.640625 -29.117188 29.742188 -29.851562 29.890625 -30.65625 C 30.003906 -31.289062 30.125 -31.863281 30.25 -32.375 C 30.375 -32.894531 30.472656 -33.484375 30.546875 -34.140625 C 30.546875 -34.179688 30.5625 -34.484375 30.59375 -35.046875 C 30.632812 -35.617188 30.675781 -36.179688 30.71875 -36.734375 C 30.757812 -37.285156 30.78125 -37.582031 30.78125 -37.625 C 30.78125 -37.695312 30.804688 -37.84375 30.859375 -38.0625 C 30.910156 -38.289062 31.03125 -38.492188 31.21875 -38.671875 C 31.476562 -38.929688 31.726562 -39.078125 31.96875 -39.109375 C 32.207031 -39.148438 32.566406 -39.171875 33.046875 -39.171875 C 33.597656 -39.171875 34.09375 -39.140625 34.53125 -39.078125 C 34.96875 -39.023438 35.460938 -38.984375 36.015625 -38.953125 C 36.492188 -38.953125 36.914062 -38.96875 37.28125 -39 C 37.65625 -39.039062 38.066406 -39.0625 38.515625 -39.0625 C 38.835938 -39.0625 39.226562 -39.050781 39.6875 -39.03125 C 40.15625 -39.007812 40.550781 -38.890625 40.875 -38.671875 C 41.207031 -38.453125 41.375 -38.046875 41.375 -37.453125 Z M 41.375 -37.453125 "/></g></g></g><g fill="#6c63ff" fill-opacity="1"><g transform="translate(202.577807, 316.211555)"><g><path d="M 27.453125 -2.203125 C 27.453125 -2.203125 27.414062 -2.019531 27.34375 -1.65625 C 27.269531 -1.289062 27.101562 -0.921875 26.84375 -0.546875 C 26.59375 -0.179688 26.191406 0 25.640625 0 C 24.972656 0 24.375 -0.0234375 23.84375 -0.078125 C 23.3125 -0.140625 22.710938 -0.171875 22.046875 -0.171875 C 21.492188 -0.171875 20.992188 -0.148438 20.546875 -0.109375 C 20.109375 -0.078125 19.613281 -0.0625 19.0625 -0.0625 C 18.394531 -0.0625 17.941406 -0.1875 17.703125 -0.4375 C 17.460938 -0.695312 17.332031 -0.992188 17.3125 -1.328125 C 17.300781 -1.660156 17.273438 -1.914062 17.234375 -2.09375 C 17.234375 -2.28125 17.207031 -2.664062 17.15625 -3.25 C 17.101562 -3.84375 17.035156 -4.441406 16.953125 -5.046875 C 16.878906 -5.660156 16.753906 -6.039062 16.578125 -6.1875 C 16.429688 -6.332031 16.363281 -6.394531 16.375 -6.375 C 16.394531 -6.363281 16.316406 -6.410156 16.140625 -6.515625 C 16.097656 -6.554688 15.660156 -6.582031 14.828125 -6.59375 C 14.003906 -6.613281 13.28125 -6.625 12.65625 -6.625 C 11.625 -6.625 11.03125 -6.484375 10.875 -6.203125 C 10.726562 -5.929688 10.601562 -5.484375 10.5 -4.859375 C 10.5 -4.710938 10.476562 -4.332031 10.4375 -3.71875 C 10.40625 -3.113281 10.351562 -2.515625 10.28125 -1.921875 C 10.207031 -1.335938 10.113281 -0.957031 10 -0.78125 C 9.8125 -0.519531 9.609375 -0.332031 9.390625 -0.21875 C 9.171875 -0.113281 8.835938 -0.0625 8.390625 -0.0625 C 7.878906 -0.0625 7.410156 -0.0664062 6.984375 -0.078125 C 6.566406 -0.0976562 6.097656 -0.109375 5.578125 -0.109375 C 5.023438 -0.109375 4.472656 -0.0976562 3.921875 -0.078125 C 3.367188 -0.0664062 2.816406 -0.0625 2.265625 -0.0625 C 1.785156 -0.0625 1.316406 -0.140625 0.859375 -0.296875 C 0.398438 -0.460938 0.171875 -0.914062 0.171875 -1.65625 C 0.171875 -1.875 0.210938 -2.222656 0.296875 -2.703125 C 0.390625 -3.179688 0.492188 -3.71875 0.609375 -4.3125 C 0.722656 -5.050781 0.804688 -5.695312 0.859375 -6.25 C 0.910156 -6.800781 1.007812 -7.425781 1.15625 -8.125 C 1.269531 -8.75 1.378906 -9.316406 1.484375 -9.828125 C 1.597656 -10.347656 1.710938 -10.921875 1.828125 -11.546875 C 2.003906 -12.460938 2.128906 -13.28125 2.203125 -14 C 2.285156 -14.71875 2.398438 -15.539062 2.546875 -16.46875 C 2.691406 -17.382812 2.835938 -18.191406 2.984375 -18.890625 C 3.128906 -19.585938 3.257812 -20.398438 3.375 -21.328125 C 3.445312 -21.953125 3.507812 -22.53125 3.5625 -23.0625 C 3.613281 -23.601562 3.695312 -24.203125 3.8125 -24.859375 C 3.957031 -25.597656 4.101562 -26.28125 4.25 -26.90625 C 4.394531 -27.53125 4.546875 -28.210938 4.703125 -28.953125 C 4.921875 -30.128906 5.070312 -31.175781 5.15625 -32.09375 C 5.25 -33.019531 5.425781 -34.050781 5.6875 -35.1875 C 5.875 -35.925781 6.066406 -36.609375 6.265625 -37.234375 C 6.472656 -37.859375 6.707031 -38.300781 6.96875 -38.5625 C 7.476562 -38.96875 8.285156 -39.171875 9.390625 -39.171875 C 10.347656 -39.171875 11.203125 -39.132812 11.953125 -39.0625 C 12.710938 -38.988281 13.550781 -38.953125 14.46875 -38.953125 C 15.175781 -38.953125 15.878906 -38.957031 16.578125 -38.96875 C 17.273438 -38.988281 17.972656 -39 18.671875 -39 L 18.890625 -39 C 19.628906 -39 20.15625 -38.925781 20.46875 -38.78125 C 20.78125 -38.632812 21.066406 -38.320312 21.328125 -37.84375 C 21.398438 -37.8125 21.453125 -37.710938 21.484375 -37.546875 C 21.523438 -37.378906 21.566406 -37.257812 21.609375 -37.1875 C 21.609375 -37.1875 21.648438 -36.914062 21.734375 -36.375 C 21.828125 -35.84375 21.945312 -35.242188 22.09375 -34.578125 C 22.25 -33.921875 22.367188 -33.320312 22.453125 -32.78125 C 22.546875 -32.25 22.59375 -31.984375 22.59375 -31.984375 C 22.738281 -31.097656 22.847656 -30.296875 22.921875 -29.578125 C 23.003906 -28.867188 23.117188 -28.070312 23.265625 -27.1875 C 23.441406 -26.113281 23.613281 -25.144531 23.78125 -24.28125 C 23.945312 -23.414062 24.140625 -22.445312 24.359375 -21.375 C 24.546875 -20.53125 24.710938 -19.75 24.859375 -19.03125 C 25.003906 -18.3125 25.132812 -17.53125 25.25 -16.6875 C 25.4375 -15.539062 25.554688 -14.515625 25.609375 -13.609375 C 25.660156 -12.710938 25.757812 -11.691406 25.90625 -10.546875 C 26.09375 -9.441406 26.304688 -8.289062 26.546875 -7.09375 C 26.785156 -5.894531 26.992188 -4.84375 27.171875 -3.9375 C 27.359375 -3.039062 27.453125 -2.460938 27.453125 -2.203125 Z M 15.578125 -18.015625 C 15.578125 -19.003906 15.507812 -19.988281 15.375 -20.96875 C 15.25 -21.945312 15.125 -22.800781 15 -23.53125 C 14.875 -24.269531 14.789062 -24.769531 14.75 -25.03125 C 14.71875 -25.46875 14.671875 -25.925781 14.609375 -26.40625 C 14.554688 -26.882812 14.492188 -27.160156 14.421875 -27.234375 C 14.304688 -27.640625 14.125 -27.84375 13.875 -27.84375 C 13.644531 -27.84375 13.492188 -27.660156 13.421875 -27.296875 C 13.390625 -27.222656 13.335938 -27.007812 13.265625 -26.65625 C 13.191406 -26.3125 13.125 -25.972656 13.0625 -25.640625 C 13.007812 -25.304688 12.960938 -25.082031 12.921875 -24.96875 C 12.847656 -24.632812 12.773438 -24.328125 12.703125 -24.046875 C 12.628906 -23.773438 12.554688 -23.476562 12.484375 -23.15625 C 12.484375 -23.039062 12.445312 -22.722656 12.375 -22.203125 C 12.300781 -21.691406 12.21875 -21.125 12.125 -20.5 C 12.03125 -19.875 11.945312 -19.3125 11.875 -18.8125 C 11.800781 -18.3125 11.765625 -18.007812 11.765625 -17.90625 C 11.765625 -17.050781 11.9375 -16.519531 12.28125 -16.3125 C 12.632812 -16.113281 13.035156 -16.015625 13.484375 -16.015625 C 13.847656 -16.015625 14.285156 -16.097656 14.796875 -16.265625 C 15.316406 -16.429688 15.578125 -17.015625 15.578125 -18.015625 Z M 15.578125 -18.015625 "/></g></g></g><g fill="#6c63ff" fill-opacity="1"><g transform="translate(233.896878, 316.211555)"><g><path d="M 21.046875 -4.640625 C 21.046875 -4.273438 21.023438 -3.925781 20.984375 -3.59375 C 20.953125 -3.257812 20.9375 -2.890625 20.9375 -2.484375 L 20.9375 -2.375 C 20.9375 -2.1875 20.9375 -1.898438 20.9375 -1.515625 C 20.9375 -1.128906 20.816406 -0.78125 20.578125 -0.46875 C 20.335938 -0.15625 19.847656 0 19.109375 0 C 18.597656 0 18.140625 -0.015625 17.734375 -0.046875 C 17.328125 -0.0859375 16.867188 -0.109375 16.359375 -0.109375 C 15.878906 -0.109375 15.453125 -0.0976562 15.078125 -0.078125 C 14.710938 -0.0664062 14.289062 -0.0625 13.8125 -0.0625 C 13.332031 -0.0625 12.914062 -0.0664062 12.5625 -0.078125 C 12.21875 -0.0976562 11.820312 -0.109375 11.375 -0.109375 L 7.234375 -0.109375 C 6.648438 -0.109375 6.117188 -0.0859375 5.640625 -0.046875 C 5.160156 -0.015625 4.609375 0 3.984375 0 C 2.984375 0 2.378906 -0.265625 2.171875 -0.796875 C 1.972656 -1.335938 1.875 -1.789062 1.875 -2.15625 L 1.875 -2.59375 C 1.875 -3.625 1.898438 -4.546875 1.953125 -5.359375 C 2.015625 -6.171875 2.046875 -7.09375 2.046875 -8.125 C 2.046875 -9.226562 2.015625 -10.222656 1.953125 -11.109375 C 1.898438 -11.992188 1.875 -12.988281 1.875 -14.09375 C 1.875 -14.976562 1.910156 -15.769531 1.984375 -16.46875 C 2.054688 -17.164062 2.09375 -17.9375 2.09375 -18.78125 C 2.09375 -19.476562 2.070312 -20.09375 2.03125 -20.625 C 2 -21.164062 1.984375 -21.769531 1.984375 -22.4375 C 1.984375 -22.875 2 -23.3125 2.03125 -23.75 C 2.070312 -24.195312 2.09375 -24.640625 2.09375 -25.078125 C 2.09375 -25.785156 2.070312 -26.414062 2.03125 -26.96875 C 2 -27.519531 1.984375 -28.144531 1.984375 -28.84375 C 2.023438 -29.539062 2.0625 -30.15625 2.09375 -30.6875 C 2.132812 -31.226562 2.15625 -31.828125 2.15625 -32.484375 C 2.15625 -33.222656 2.132812 -33.929688 2.09375 -34.609375 C 2.0625 -35.296875 2.046875 -35.988281 2.046875 -36.6875 L 2.046875 -36.90625 C 2.046875 -37.09375 2.070312 -37.367188 2.125 -37.734375 C 2.175781 -38.097656 2.335938 -38.425781 2.609375 -38.71875 C 2.890625 -39.019531 3.382812 -39.171875 4.09375 -39.171875 C 4.601562 -39.171875 5.0625 -39.140625 5.46875 -39.078125 C 5.875 -39.023438 6.332031 -39 6.84375 -39 C 7.363281 -39 7.867188 -39.015625 8.359375 -39.046875 C 8.859375 -39.085938 9.347656 -39.109375 9.828125 -39.109375 C 10.347656 -39.109375 10.875 -39.046875 11.40625 -38.921875 C 11.9375 -38.796875 12.203125 -38.328125 12.203125 -37.515625 C 12.203125 -37.148438 12.179688 -36.828125 12.140625 -36.546875 C 12.109375 -36.273438 12.078125 -35.972656 12.046875 -35.640625 C 12.003906 -34.859375 11.960938 -34.15625 11.921875 -33.53125 C 11.890625 -32.90625 11.875 -32.226562 11.875 -31.5 C 11.875 -30.757812 11.898438 -30.082031 11.953125 -29.46875 C 12.015625 -28.863281 12.023438 -28.191406 11.984375 -27.453125 C 11.984375 -26.898438 11.960938 -26.347656 11.921875 -25.796875 C 11.890625 -25.242188 11.875 -24.675781 11.875 -24.09375 C 11.875 -23.644531 11.898438 -23.191406 11.953125 -22.734375 C 12.015625 -22.273438 12.046875 -21.820312 12.046875 -21.375 C 12.046875 -20.570312 12.023438 -19.847656 11.984375 -19.203125 C 11.953125 -18.554688 11.9375 -17.828125 11.9375 -17.015625 C 11.9375 -16.535156 11.953125 -16.082031 11.984375 -15.65625 C 12.023438 -15.238281 12.046875 -14.769531 12.046875 -14.25 C 12.046875 -14.03125 12.035156 -13.800781 12.015625 -13.5625 C 11.992188 -13.320312 11.984375 -13.070312 11.984375 -12.8125 C 11.984375 -11.851562 12.175781 -11.144531 12.5625 -10.6875 C 12.957031 -10.226562 13.398438 -9.941406 13.890625 -9.828125 C 14.390625 -9.722656 14.804688 -9.671875 15.140625 -9.671875 C 15.617188 -9.671875 16.03125 -9.660156 16.375 -9.640625 C 16.726562 -9.617188 17.144531 -9.628906 17.625 -9.671875 C 17.84375 -9.671875 18.046875 -9.675781 18.234375 -9.6875 C 18.421875 -9.707031 18.625 -9.71875 18.84375 -9.71875 C 19.101562 -9.71875 19.378906 -9.691406 19.671875 -9.640625 C 19.960938 -9.585938 20.238281 -9.410156 20.5 -9.109375 C 20.71875 -8.890625 20.863281 -8.46875 20.9375 -7.84375 C 21.007812 -7.21875 21.046875 -6.59375 21.046875 -5.96875 C 21.046875 -5.34375 21.046875 -4.898438 21.046875 -4.640625 Z M 21.046875 -4.640625 "/></g></g></g><g fill="#6c63ff" fill-opacity="1"><g transform="translate(259.471516, 316.211555)"><g><path d="M 21.046875 -4.640625 C 21.046875 -4.273438 21.023438 -3.925781 20.984375 -3.59375 C 20.953125 -3.257812 20.9375 -2.890625 20.9375 -2.484375 L 20.9375 -2.375 C 20.9375 -2.1875 20.9375 -1.898438 20.9375 -1.515625 C 20.9375 -1.128906 20.816406 -0.78125 20.578125 -0.46875 C 20.335938 -0.15625 19.847656 0 19.109375 0 C 18.597656 0 18.140625 -0.015625 17.734375 -0.046875 C 17.328125 -0.0859375 16.867188 -0.109375 16.359375 -0.109375 C 15.878906 -0.109375 15.453125 -0.0976562 15.078125 -0.078125 C 14.710938 -0.0664062 14.289062 -0.0625 13.8125 -0.0625 C 13.332031 -0.0625 12.914062 -0.0664062 12.5625 -0.078125 C 12.21875 -0.0976562 11.820312 -0.109375 11.375 -0.109375 L 7.234375 -0.109375 C 6.648438 -0.109375 6.117188 -0.0859375 5.640625 -0.046875 C 5.160156 -0.015625 4.609375 0 3.984375 0 C 2.984375 0 2.378906 -0.265625 2.171875 -0.796875 C 1.972656 -1.335938 1.875 -1.789062 1.875 -2.15625 L 1.875 -2.59375 C 1.875 -3.625 1.898438 -4.546875 1.953125 -5.359375 C 2.015625 -6.171875 2.046875 -7.09375 2.046875 -8.125 C 2.046875 -9.226562 2.015625 -10.222656 1.953125 -11.109375 C 1.898438 -11.992188 1.875 -12.988281 1.875 -14.09375 C 1.875 -14.976562 1.910156 -15.769531 1.984375 -16.46875 C 2.054688 -17.164062 2.09375 -17.9375 2.09375 -18.78125 C 2.09375 -19.476562 2.070312 -20.09375 2.03125 -20.625 C 2 -21.164062 1.984375 -21.769531 1.984375 -22.4375 C 1.984375 -22.875 2 -23.3125 2.03125 -23.75 C 2.070312 -24.195312 2.09375 -24.640625 2.09375 -25.078125 C 2.09375 -25.785156 2.070312 -26.414062 2.03125 -26.96875 C 2 -27.519531 1.984375 -28.144531 1.984375 -28.84375 C 2.023438 -29.539062 2.0625 -30.15625 2.09375 -30.6875 C 2.132812 -31.226562 2.15625 -31.828125 2.15625 -32.484375 C 2.15625 -33.222656 2.132812 -33.929688 2.09375 -34.609375 C 2.0625 -35.296875 2.046875 -35.988281 2.046875 -36.6875 L 2.046875 -36.90625 C 2.046875 -37.09375 2.070312 -37.367188 2.125 -37.734375 C 2.175781 -38.097656 2.335938 -38.425781 2.609375 -38.71875 C 2.890625 -39.019531 3.382812 -39.171875 4.09375 -39.171875 C 4.601562 -39.171875 5.0625 -39.140625 5.46875 -39.078125 C 5.875 -39.023438 6.332031 -39 6.84375 -39 C 7.363281 -39 7.867188 -39.015625 8.359375 -39.046875 C 8.859375 -39.085938 9.347656 -39.109375 9.828125 -39.109375 C 10.347656 -39.109375 10.875 -39.046875 11.40625 -38.921875 C 11.9375 -38.796875 12.203125 -38.328125 12.203125 -37.515625 C 12.203125 -37.148438 12.179688 -36.828125 12.140625 -36.546875 C 12.109375 -36.273438 12.078125 -35.972656 12.046875 -35.640625 C 12.003906 -34.859375 11.960938 -34.15625 11.921875 -33.53125 C 11.890625 -32.90625 11.875 -32.226562 11.875 -31.5 C 11.875 -30.757812 11.898438 -30.082031 11.953125 -29.46875 C 12.015625 -28.863281 12.023438 -28.191406 11.984375 -27.453125 C 11.984375 -26.898438 11.960938 -26.347656 11.921875 -25.796875 C 11.890625 -25.242188 11.875 -24.675781 11.875 -24.09375 C 11.875 -23.644531 11.898438 -23.191406 11.953125 -22.734375 C 12.015625 -22.273438 12.046875 -21.820312 12.046875 -21.375 C 12.046875 -20.570312 12.023438 -19.847656 11.984375 -19.203125 C 11.953125 -18.554688 11.9375 -17.828125 11.9375 -17.015625 C 11.9375 -16.535156 11.953125 -16.082031 11.984375 -15.65625 C 12.023438 -15.238281 12.046875 -14.769531 12.046875 -14.25 C 12.046875 -14.03125 12.035156 -13.800781 12.015625 -13.5625 C 11.992188 -13.320312 11.984375 -13.070312 11.984375 -12.8125 C 11.984375 -11.851562 12.175781 -11.144531 12.5625 -10.6875 C 12.957031 -10.226562 13.398438 -9.941406 13.890625 -9.828125 C 14.390625 -9.722656 14.804688 -9.671875 15.140625 -9.671875 C 15.617188 -9.671875 16.03125 -9.660156 16.375 -9.640625 C 16.726562 -9.617188 17.144531 -9.628906 17.625 -9.671875 C 17.84375 -9.671875 18.046875 -9.675781 18.234375 -9.6875 C 18.421875 -9.707031 18.625 -9.71875 18.84375 -9.71875 C 19.101562 -9.71875 19.378906 -9.691406 19.671875 -9.640625 C 19.960938 -9.585938 20.238281 -9.410156 20.5 -9.109375 C 20.71875 -8.890625 20.863281 -8.46875 20.9375 -7.84375 C 21.007812 -7.21875 21.046875 -6.59375 21.046875 -5.96875 C 21.046875 -5.34375 21.046875 -4.898438 21.046875 -4.640625 Z M 21.046875 -4.640625 "/></g></g></g><g fill="#6c63ff" fill-opacity="1"><g transform="translate(285.046167, 316.211555)"><g><path d="M 22.875 -7.078125 C 22.875 -6.628906 22.851562 -6.226562 22.8125 -5.875 C 22.78125 -5.53125 22.765625 -5.117188 22.765625 -4.640625 C 22.765625 -4.160156 22.769531 -3.734375 22.78125 -3.359375 C 22.800781 -2.992188 22.8125 -2.570312 22.8125 -2.09375 C 22.8125 -1.769531 22.691406 -1.328125 22.453125 -0.765625 C 22.210938 -0.210938 21.613281 0.0625 20.65625 0.0625 C 20.289062 0.0625 19.953125 0.0507812 19.640625 0.03125 C 19.328125 0.0078125 18.96875 0 18.5625 0 L 17.234375 0 C 16.578125 0 15.976562 -0.015625 15.4375 -0.046875 C 14.90625 -0.0859375 14.304688 -0.109375 13.640625 -0.109375 C 13.273438 -0.109375 12.9375 -0.0976562 12.625 -0.078125 C 12.3125 -0.0664062 11.953125 -0.0625 11.546875 -0.0625 L 5.640625 -0.0625 C 5.378906 -0.0195312 5.132812 0.0078125 4.90625 0.03125 C 4.6875 0.0507812 4.429688 0.0625 4.140625 0.0625 C 3.804688 0.0625 3.34375 -0.0820312 2.75 -0.375 C 2.164062 -0.675781 1.875 -1.304688 1.875 -2.265625 C 1.875 -3.003906 1.898438 -3.664062 1.953125 -4.25 C 2.015625 -4.84375 2.046875 -5.488281 2.046875 -6.1875 C 2.046875 -6.851562 2.035156 -7.441406 2.015625 -7.953125 C 1.992188 -8.472656 1.984375 -9.0625 1.984375 -9.71875 C 1.984375 -10.195312 2.007812 -10.628906 2.0625 -11.015625 C 2.125 -11.410156 2.15625 -11.847656 2.15625 -12.328125 C 2.15625 -12.796875 2.132812 -13.210938 2.09375 -13.578125 C 2.0625 -13.953125 2.046875 -14.378906 2.046875 -14.859375 C 2.046875 -15.785156 2.0625 -16.601562 2.09375 -17.3125 C 2.132812 -18.03125 2.15625 -18.851562 2.15625 -19.78125 C 2.15625 -20.625 2.132812 -21.453125 2.09375 -22.265625 C 2.0625 -23.078125 2.046875 -23.890625 2.046875 -24.703125 C 2.003906 -25.835938 2.007812 -26.851562 2.0625 -27.75 C 2.125 -28.65625 2.15625 -29.679688 2.15625 -30.828125 C 2.15625 -31.640625 2.132812 -32.359375 2.09375 -32.984375 C 2.0625 -33.609375 2.046875 -34.304688 2.046875 -35.078125 C 2.046875 -36.703125 2.207031 -37.800781 2.53125 -38.375 C 2.863281 -38.945312 3.660156 -39.234375 4.921875 -39.234375 C 5.648438 -39.234375 6.3125 -39.191406 6.90625 -39.109375 C 7.5 -39.035156 8.144531 -39 8.84375 -39 C 9.175781 -39 9.515625 -39.007812 9.859375 -39.03125 C 10.210938 -39.050781 10.554688 -39.0625 10.890625 -39.0625 C 11.765625 -39.0625 12.5625 -39.03125 13.28125 -38.96875 C 14 -38.914062 14.800781 -38.890625 15.6875 -38.890625 C 16.09375 -38.890625 16.453125 -38.90625 16.765625 -38.9375 C 17.078125 -38.976562 17.421875 -39 17.796875 -39 L 18.890625 -39 C 19.191406 -39 19.46875 -39.007812 19.71875 -39.03125 C 19.976562 -39.050781 20.273438 -39.0625 20.609375 -39.0625 C 21.453125 -39.0625 21.957031 -38.820312 22.125 -38.34375 C 22.289062 -37.863281 22.375 -37.476562 22.375 -37.1875 C 22.375 -36.707031 22.34375 -36.234375 22.28125 -35.765625 C 22.226562 -35.304688 22.203125 -34.835938 22.203125 -34.359375 C 22.203125 -33.878906 22.210938 -33.304688 22.234375 -32.640625 C 22.253906 -31.984375 22.125 -31.414062 21.84375 -30.9375 C 21.570312 -30.457031 20.976562 -30.21875 20.0625 -30.21875 L 19.453125 -30.21875 C 19.117188 -30.21875 18.8125 -30.207031 18.53125 -30.1875 C 18.257812 -30.175781 17.957031 -30.171875 17.625 -30.171875 C 17.1875 -30.171875 16.789062 -30.195312 16.4375 -30.25 C 16.082031 -30.300781 15.664062 -30.328125 15.1875 -30.328125 C 13.675781 -30.328125 12.773438 -30.097656 12.484375 -29.640625 C 12.191406 -29.179688 12.046875 -28.472656 12.046875 -27.515625 C 12.046875 -25.597656 12.691406 -24.640625 13.984375 -24.640625 C 14.273438 -24.640625 14.546875 -24.65625 14.796875 -24.6875 C 15.054688 -24.726562 15.335938 -24.75 15.640625 -24.75 L 15.75 -24.75 C 16.15625 -24.75 16.519531 -24.726562 16.84375 -24.6875 C 17.175781 -24.65625 17.53125 -24.640625 17.90625 -24.640625 C 18.226562 -24.640625 18.53125 -24.648438 18.8125 -24.671875 C 19.09375 -24.691406 19.378906 -24.703125 19.671875 -24.703125 C 20.441406 -24.703125 20.972656 -24.5625 21.265625 -24.28125 C 21.566406 -24.007812 21.734375 -23.6875 21.765625 -23.3125 C 21.804688 -22.945312 21.828125 -22.632812 21.828125 -22.375 C 21.828125 -21.9375 21.816406 -21.550781 21.796875 -21.21875 C 21.773438 -20.882812 21.765625 -20.5 21.765625 -20.0625 C 21.765625 -19.65625 21.773438 -19.285156 21.796875 -18.953125 C 21.816406 -18.617188 21.828125 -18.25 21.828125 -17.84375 C 21.828125 -17.144531 21.675781 -16.628906 21.375 -16.296875 C 21.082031 -15.960938 20.757812 -15.757812 20.40625 -15.6875 C 20.0625 -15.613281 19.757812 -15.578125 19.5 -15.578125 C 18.65625 -15.578125 17.890625 -15.613281 17.203125 -15.6875 C 16.523438 -15.757812 15.765625 -15.796875 14.921875 -15.796875 C 13.921875 -15.796875 13.226562 -15.628906 12.84375 -15.296875 C 12.457031 -14.972656 12.234375 -14.578125 12.171875 -14.109375 C 12.117188 -13.648438 12.09375 -13.21875 12.09375 -12.8125 L 12.09375 -12.15625 C 12.09375 -12.007812 12.101562 -11.742188 12.125 -11.359375 C 12.144531 -10.972656 12.171875 -10.6875 12.203125 -10.5 C 12.609375 -9.726562 13.050781 -9.332031 13.53125 -9.3125 C 14.007812 -9.289062 14.765625 -9.242188 15.796875 -9.171875 C 16.316406 -9.128906 16.769531 -9.082031 17.15625 -9.03125 C 17.539062 -8.976562 17.972656 -8.953125 18.453125 -8.953125 C 18.890625 -8.953125 19.285156 -8.976562 19.640625 -9.03125 C 19.992188 -9.082031 20.375 -9.109375 20.78125 -9.109375 C 21.070312 -9.109375 21.484375 -8.988281 22.015625 -8.75 C 22.546875 -8.507812 22.832031 -7.953125 22.875 -7.078125 Z M 22.875 -7.078125 "/></g></g></g><g fill="#6c63ff" fill-opacity="1"><g transform="translate(312.885429, 316.211555)"><g><path d="M 21.265625 -31.21875 C 21.265625 -31 21.191406 -30.617188 21.046875 -30.078125 C 20.898438 -29.546875 20.40625 -29.28125 19.5625 -29.28125 C 19.300781 -29.28125 19.0625 -29.289062 18.84375 -29.3125 C 18.625 -29.332031 18.363281 -29.34375 18.0625 -29.34375 C 17.25 -29.34375 16.695312 -29.128906 16.40625 -28.703125 C 16.113281 -28.273438 15.96875 -27.507812 15.96875 -26.40625 C 15.96875 -25.488281 15.992188 -24.660156 16.046875 -23.921875 C 16.109375 -23.179688 16.140625 -22.332031 16.140625 -21.375 C 16.140625 -20.238281 16.117188 -19.226562 16.078125 -18.34375 C 16.035156 -17.457031 16.015625 -16.441406 16.015625 -15.296875 C 16.015625 -14.265625 16.035156 -13.34375 16.078125 -12.53125 C 16.117188 -11.726562 16.140625 -10.8125 16.140625 -9.78125 C 16.140625 -9.1875 16.128906 -8.601562 16.109375 -8.03125 C 16.085938 -7.46875 16.078125 -6.890625 16.078125 -6.296875 C 16.078125 -5.816406 16.085938 -5.375 16.109375 -4.96875 C 16.128906 -4.5625 16.15625 -4.101562 16.1875 -3.59375 C 16.226562 -3.300781 16.265625 -3.035156 16.296875 -2.796875 C 16.335938 -2.554688 16.359375 -2.285156 16.359375 -1.984375 C 16.359375 -1.398438 16.21875 -0.976562 15.9375 -0.71875 C 15.664062 -0.457031 15.363281 -0.289062 15.03125 -0.21875 C 14.695312 -0.144531 14.4375 -0.109375 14.25 -0.109375 C 13.914062 -0.109375 13.617188 -0.117188 13.359375 -0.140625 C 13.109375 -0.160156 12.816406 -0.1875 12.484375 -0.21875 C 12.003906 -0.257812 11.585938 -0.28125 11.234375 -0.28125 C 10.890625 -0.28125 10.476562 -0.28125 10 -0.28125 C 9.632812 -0.28125 9.285156 -0.257812 8.953125 -0.21875 C 8.617188 -0.1875 8.25 -0.171875 7.84375 -0.171875 C 7.257812 -0.171875 6.789062 -0.316406 6.4375 -0.609375 C 6.082031 -0.898438 5.90625 -1.507812 5.90625 -2.4375 C 5.90625 -3.351562 5.953125 -4.160156 6.046875 -4.859375 C 6.140625 -5.554688 6.1875 -6.367188 6.1875 -7.296875 C 6.1875 -8.140625 6.15625 -8.910156 6.09375 -9.609375 C 6.039062 -10.304688 6.015625 -11.082031 6.015625 -11.9375 C 6.015625 -12.925781 6.0625 -13.828125 6.15625 -14.640625 C 6.25 -15.453125 6.296875 -16.351562 6.296875 -17.34375 C 6.296875 -18.082031 6.265625 -18.738281 6.203125 -19.3125 C 6.148438 -19.882812 6.109375 -20.519531 6.078125 -21.21875 C 6.035156 -22.351562 6.070312 -23.410156 6.1875 -24.390625 C 6.300781 -25.367188 6.335938 -26.234375 6.296875 -26.984375 C 6.265625 -27.742188 6.007812 -28.328125 5.53125 -28.734375 C 5.414062 -28.878906 5.3125 -28.957031 5.21875 -28.96875 C 5.125 -28.988281 5.0625 -29.019531 5.03125 -29.0625 C 4.84375 -29.175781 4.609375 -29.238281 4.328125 -29.25 C 4.054688 -29.269531 3.828125 -29.28125 3.640625 -29.28125 C 3.421875 -29.28125 3.21875 -29.269531 3.03125 -29.25 C 2.851562 -29.238281 2.671875 -29.234375 2.484375 -29.234375 C 1.742188 -29.234375 1.242188 -29.425781 0.984375 -29.8125 C 0.734375 -30.195312 0.609375 -30.554688 0.609375 -30.890625 C 0.609375 -31.585938 0.625 -32.210938 0.65625 -32.765625 C 0.695312 -33.316406 0.71875 -33.941406 0.71875 -34.640625 C 0.71875 -35.117188 0.695312 -35.539062 0.65625 -35.90625 C 0.625 -36.28125 0.609375 -36.707031 0.609375 -37.1875 C 0.609375 -37.882812 0.753906 -38.367188 1.046875 -38.640625 C 1.335938 -38.921875 1.835938 -39.0625 2.546875 -39.0625 C 3.171875 -39.0625 3.738281 -39.039062 4.25 -39 C 4.769531 -38.96875 5.34375 -38.953125 5.96875 -38.953125 C 6.925781 -38.953125 7.875 -38.976562 8.8125 -39.03125 C 9.75 -39.082031 10.679688 -39.109375 11.609375 -39.109375 L 12.203125 -39.109375 C 12.984375 -39.109375 13.6875 -39.085938 14.3125 -39.046875 C 14.9375 -39.015625 15.65625 -39 16.46875 -39 C 16.976562 -39 17.425781 -39.015625 17.8125 -39.046875 C 18.195312 -39.085938 18.628906 -39.109375 19.109375 -39.109375 C 20.179688 -39.109375 20.804688 -38.785156 20.984375 -38.140625 C 21.171875 -37.503906 21.265625 -36.816406 21.265625 -36.078125 C 21.265625 -35.523438 21.253906 -35.035156 21.234375 -34.609375 C 21.222656 -34.191406 21.21875 -33.722656 21.21875 -33.203125 C 21.21875 -32.835938 21.222656 -32.503906 21.234375 -32.203125 C 21.253906 -31.910156 21.265625 -31.582031 21.265625 -31.21875 Z M 21.265625 -31.21875 "/></g></g></g></svg>